<svg xmlns="http://www.w3.org/2000/svg" width="49" height="21" viewBox="0 0 49 21" fill="none">
  <rect width="48.75" height="20.625" transform="translate(0.125 0.375)"/>
  <path d="M48.8669 16.7804C48.8502 16.5623 48.8419 16.1932 48.8419 15.7569C48.8252 14.3476 48.7918 13.2319 48.5665 12.6866C48.3579 12.1581 48.0992 11.7387 47.7738 11.4199L47.7488 11.3947C47.6153 11.2605 47.39 11.034 47.0979 10.9837C47.0896 10.9753 47.0812 10.9669 47.0645 10.9585C46.372 10.5474 45.7127 10.4048 45.0118 10.2538L44.895 10.2287C44.144 10.0693 43.3596 9.92667 42.5586 9.81761C42.2498 9.77567 41.9411 9.72533 41.6323 9.675C40.7395 9.524 39.8383 9.33944 38.9371 9.11294C38.9371 9.09617 38.9454 9.07939 38.9454 9.071L38.9538 9.02067C38.9705 8.94517 38.9871 8.88644 39.0038 8.83611C39.0622 8.65994 39.0956 8.51733 39.0789 8.24889C39.0539 7.80428 38.887 7.41839 38.6116 7.14994C38.2779 6.82278 37.8773 6.67178 37.4518 6.71372C36.9261 6.76406 36.3837 7.11639 35.9915 7.66167C35.8663 7.83783 35.7579 7.99722 35.6577 8.15661C35.0736 7.95528 34.4812 7.74555 33.8804 7.51906C34.0473 7.11639 34.1641 6.68017 34.0639 6.22717C33.8637 5.296 32.9458 4.65005 32.0529 4.80944C31.377 4.93528 30.9014 5.43022 30.5343 5.96711L29.341 5.16178C29.6414 4.60811 29.9418 3.97055 29.7582 3.29944C29.6414 2.86322 29.341 2.51928 28.9154 2.31794C28.4231 2.08305 27.8056 2.08305 27.3133 2.31794C26.9044 2.51089 26.579 2.8045 26.3036 3.13167L22.8157 0.799554C22.5653 0.631777 21.806 0.120055 21.1384 0.53111C20.8631 0.698888 20.7129 0.975721 20.6127 1.19383C20.2372 2.02433 20.1204 2.96389 20.2706 3.8615C20.1121 3.92861 19.9535 4.00411 19.795 4.088C19.3277 4.33967 18.8938 4.63328 18.4766 4.9185C18.1762 5.12822 17.8591 5.33794 17.5503 5.5225C15.8564 6.52917 13.7453 6.98217 11.6091 6.79761C9.06407 6.5795 6.98631 5.40505 4.78339 4.1635L4.241 3.85311C4.07411 3.76083 3.85716 3.635 3.58179 3.60983C2.04642 3.484 1.3288 5.87483 0.995023 7.89655C0.736346 9.49044 0.711313 10.8662 0.911579 12.0826C0.903235 12.091 0.903234 12.0994 0.89489 12.1078C0.853168 12.2001 -0.214917 14.3476 0.235681 17.4263L0.444292 18.6343C0.435947 18.7769 0.444292 19.0706 0.594491 19.3809C0.769724 19.7584 1.17026 20.2366 2.11317 20.3541C3.35649 20.4631 13.9289 21 23.3914 21C26.5456 21 29.5746 20.9413 32.0947 20.7903C34.7065 20.6225 37.2599 20.3876 39.7048 20.1024L39.9801 20.0688C42.2331 19.8004 44.5696 19.5236 46.7808 18.8524L46.9477 18.8021C47.8072 18.5588 48.9838 18.2065 48.8669 16.7804ZM36.6924 8.165C36.9261 7.83783 37.2515 7.60294 37.5269 7.57778C37.6938 7.561 37.8523 7.62811 38.0025 7.77072C38.1193 7.88817 38.1944 8.08111 38.2111 8.29922C38.2195 8.43344 38.2111 8.45861 38.1777 8.57606C38.161 8.64317 38.136 8.71028 38.111 8.81094L38.1026 8.86128C38.1026 8.86967 38.0943 8.87805 38.0943 8.88644C37.5686 8.74383 37.0429 8.59283 36.5089 8.42505C36.5673 8.34955 36.634 8.25728 36.6924 8.165ZM33.4882 8.33278C34.0389 8.5425 34.5813 8.73544 35.1153 8.92839C35.0319 9.03744 34.9401 9.1465 34.84 9.25556C34.573 9.54078 34.1641 9.73372 33.8303 9.71694C33.6384 9.70856 33.4798 9.64144 33.3714 9.49883C33.1461 9.20522 33.2212 8.89483 33.4882 8.33278ZM32.2031 5.66511C32.6287 5.58961 33.121 5.94194 33.2212 6.41172C33.2712 6.64661 33.1961 6.91505 33.071 7.20028C32.4702 6.957 31.8694 6.70533 31.2602 6.4285C31.5189 6.06778 31.8276 5.73222 32.2031 5.66511ZM30.0086 6.85633C29.7415 7.32611 29.4495 7.77911 29.0406 7.97206C28.832 8.07272 28.5233 8.04755 28.3063 7.89655C28.2062 7.82944 28.0893 7.712 28.0977 7.52744C28.106 7.36805 28.2062 7.1835 28.3063 7.01572L28.7319 6.24394C29.1658 6.46205 29.5913 6.66339 30.0086 6.85633ZM27.6805 3.1065C27.9475 2.98067 28.2813 2.98067 28.5483 3.1065C28.6818 3.17361 28.857 3.29105 28.9154 3.52594C29.0072 3.86989 28.8236 4.28094 28.6067 4.68361L27.0213 3.62661C27.2215 3.4085 27.4385 3.21555 27.6805 3.1065ZM21.4305 1.57133C21.4555 1.51261 21.5306 1.35322 21.6141 1.30289C21.6808 1.26094 21.8561 1.24417 22.3233 1.55455L25.3023 3.55111C23.9255 3.16522 22.4652 3.17361 21.1301 3.5595C21.0467 2.88 21.1468 2.18372 21.4305 1.57133ZM3.51504 4.50744C3.59014 4.51583 3.70696 4.57455 3.80709 4.63328L4.34113 4.93528C6.6275 6.22717 8.78871 7.44355 11.5257 7.68683C13.8454 7.88817 16.1485 7.39322 18.0009 6.29428C18.3347 6.09294 18.6602 5.87483 18.9772 5.65672C19.3945 5.3715 19.7866 5.10305 20.2122 4.87655C21.6808 4.09639 23.4749 3.92861 25.1271 4.41517C25.2105 4.44033 25.2856 4.47389 25.3691 4.49905L24.3344 6.18522L25.0687 6.64661L26.1534 4.89333C26.3203 4.98561 26.4789 5.07789 26.6458 5.17017C26.8961 5.31278 27.1464 5.46378 27.4134 5.598C27.597 5.69028 27.7723 5.77417 27.9475 5.86644L27.5386 6.60467C27.4051 6.83955 27.2466 7.13317 27.2215 7.4855C27.1965 7.9385 27.4051 8.35794 27.814 8.62639C28.2813 8.94517 28.9238 8.9955 29.4078 8.76061C30.0586 8.44183 30.4508 7.81267 30.7929 7.21706C31.4271 7.50228 32.0529 7.77072 32.6704 8.014C32.3784 8.63478 32.1447 9.36461 32.6955 10.0441C32.9625 10.3797 33.3547 10.5642 33.7969 10.581C34.3894 10.6062 35.0319 10.3209 35.4741 9.84278C35.6744 9.62467 35.833 9.42333 35.9832 9.21361C36.6173 9.41494 37.2432 9.5995 37.869 9.76728C37.7522 10.1532 37.6187 10.5307 37.4434 10.8411L38.1944 11.2773C38.4197 10.8914 38.5783 10.4384 38.7118 9.98539C39.6464 10.2203 40.5726 10.4132 41.4905 10.5642C41.8076 10.6146 42.1246 10.6649 42.4417 10.7068C43.2261 10.8159 43.9938 10.9501 44.7198 11.1095L44.8366 11.1347C45.2788 11.2269 45.6543 11.3108 46.0215 11.4451C45.9965 11.4618 45.9631 11.487 45.938 11.5038C45.6794 11.6632 45.4207 11.7806 45.1787 11.8561C43.0175 12.5021 40.6644 12.6531 38.3947 12.7957L38.1444 12.8124C38.1193 12.8124 38.086 12.8124 38.0526 12.8208C38.0442 12.8208 38.0359 12.8208 38.0192 12.8208C35.8747 12.9467 20.2206 13.2067 9.99865 12.8041C8.2797 9.81761 5.5177 7.43517 2.31344 6.18522C2.65556 5.10306 3.08947 4.48228 3.51504 4.50744ZM1.87953 8.04755C1.93794 7.69522 2.0047 7.36806 2.07145 7.05767C4.86683 8.17339 7.3034 10.2035 8.92222 12.7537C5.60114 12.6027 2.98934 12.3678 1.80443 12.0239C1.60417 10.883 1.6292 9.58272 1.87953 8.04755ZM1.54575 12.8879C1.58748 12.9047 1.63754 12.9131 1.68761 12.9215C2.97265 13.2571 5.47597 13.4836 8.60513 13.6429C8.6552 13.6429 8.70526 13.6513 8.75533 13.6513C8.89718 13.6597 9.03904 13.6681 9.18924 13.6681C9.29772 13.6765 9.40619 13.6765 9.50633 13.6849C9.6148 13.6933 9.71494 13.6933 9.82341 13.7017C9.98196 13.7101 10.1488 13.7184 10.3074 13.7184C10.3658 13.7184 10.4326 13.7268 10.491 13.7268C10.7163 13.7352 10.9499 13.7436 11.1752 13.752C11.1836 13.752 11.1836 13.752 11.1919 13.752C21.9645 14.1127 37.2849 13.7856 38.1861 13.7184L38.4281 13.7017C40.7562 13.5507 43.1594 13.3997 45.4123 12.7286C45.7294 12.6363 46.0549 12.4853 46.3803 12.2923C46.4387 12.2588 46.5055 12.2084 46.5806 12.1581C46.5973 12.1413 46.6139 12.1329 46.6306 12.1246L46.639 12.1162C46.664 12.0994 46.689 12.0826 46.7141 12.0574C46.7224 12.0491 46.7308 12.0491 46.7308 12.0407C46.7558 12.0239 46.7808 12.0071 46.8142 11.9819C46.8142 11.9819 46.8226 11.9819 46.8226 11.9736C46.8726 11.94 46.9143 11.9148 46.9561 11.8981C46.9978 11.9316 47.0645 11.9987 47.0979 12.0323L47.123 12.0574C47.3232 12.2672 47.4985 12.5356 47.6487 12.8796C47.5068 12.9551 47.3649 13.0473 47.2398 13.1396C47.1647 13.1899 47.0979 13.2403 47.0395 13.2738C46.7808 13.4248 45.9798 13.7772 45.7294 13.8527C43.5182 14.4986 41.1066 14.6496 38.7785 14.7922L38.5199 14.809C37.5769 14.8761 29.1741 15.0523 20.4125 15.0103C9.86514 14.9516 3.09782 14.5909 1.21198 13.9869C1.33714 13.5087 1.45397 13.1396 1.54575 12.8879ZM2.20496 19.4732C1.33714 19.3642 1.32046 18.8357 1.33714 18.6763C1.34549 18.6343 1.34549 18.584 1.33714 18.5421L1.12019 17.2921C0.986679 16.3861 1.00337 15.5724 1.08681 14.8761C4.00736 15.6982 14.1291 15.9079 23.1328 15.9079C26.0616 15.9079 28.8821 15.8828 31.2853 15.8576C30.2422 16.7468 29.2909 18.1562 28.4231 20.0521C18.1678 20.3289 3.65689 19.6074 2.20496 19.4732ZM46.689 17.9548L46.5222 18.0052C44.3943 18.6511 42.0996 18.9196 39.88 19.188L39.6046 19.2216C37.1764 19.5068 34.6314 19.7417 32.0446 19.9094C31.2268 19.9598 30.3423 20.0017 29.4328 20.0269C30.4842 17.8374 31.6441 16.4448 32.8874 15.8828L32.8707 15.8408C36.0749 15.7905 38.2862 15.7318 38.62 15.7066L38.8703 15.6898C41.2485 15.5388 43.7101 15.3878 46.0131 14.7167C46.3636 14.6161 47.2314 14.2218 47.5318 14.0456C47.6069 14.0037 47.6987 13.9366 47.7905 13.8694C47.8155 13.8527 47.8489 13.8275 47.8823 13.8023C47.9324 14.4063 47.9491 15.1781 47.9574 15.7737C47.9657 16.2183 47.9657 16.6042 47.9908 16.8559C48.0241 17.4934 47.6653 17.6612 46.689 17.9548Z" fill="white"/>
</svg>