<svg xmlns="http://www.w3.org/2000/svg" width="75" height="75" viewBox="0 0 83 83" fill="none">
  <path fill-rule="evenodd" clip-rule="evenodd" d="M59.9761 18.8221C59.913 18.7857 59.8425 18.762 59.7683 18.7535C59.748 18.7512 59.7275 18.75 59.7068 18.75H33.1694C33.0329 18.75 32.9013 18.8018 32.801 18.8952L22.928 28.0831C22.8256 28.1769 22.7589 28.3097 22.7508 28.4582C22.7502 28.4699 22.7499 28.4818 22.75 28.4936V55.7023C22.75 56.0048 22.9932 56.25 23.2932 56.25H50.0212C50.0393 56.2502 50.0575 56.2495 50.0755 56.2479C50.1712 56.2394 50.2642 56.2054 50.344 56.1479C50.3657 56.1322 50.3865 56.1148 50.4061 56.0957L59.8872 46.8352C59.9918 46.733 60.0514 46.5927 60.0524 46.4459L60.2499 19.3063C60.2503 19.2845 60.2493 19.2627 60.2471 19.2408C60.242 19.1914 60.2303 19.1435 60.2127 19.0982C60.1829 19.0213 60.137 18.954 60.0799 18.8996C60.0488 18.87 60.0141 18.8439 59.9761 18.8221ZM41.7123 29.0361L49.4849 29.0361V55.1546H23.8364V29.0361L33.1299 29.0361V42.8073L35.3916 41.2241L37.1199 42.8073L38.8186 41.1643L41.7123 42.8073V29.0361ZM42.5024 27.9408H49.6182L58.3174 19.8453H50.5318L42.5024 27.9408ZM33.63 27.9408L41.0225 19.8453H33.3818L24.6826 27.9408H33.63ZM58.9678 46.2082L50.5713 54.4093V28.5978L59.1544 20.5622L58.9678 46.2082Z" fill="white"/>
</svg>