<svg width="25" height="25" viewBox="0 0 25 25" fill="none" xmlns="http://www.w3.org/2000/svg">
<g id="&#208;&#186;&#208;&#190;&#209;&#128;&#208;&#183;&#208;&#184;&#208;&#189;&#208;&#176;">
<path id="Subtract" fill-rule="evenodd" clip-rule="evenodd" d="M12.5 25C19.4036 25 25 19.4036 25 12.5C25 5.59644 19.4036 0 12.5 0C5.59644 0 0 5.59644 0 12.5C0 19.4036 5.59644 25 12.5 25ZM6.42541 6.43307C6.53772 6.31585 6.69004 6.25 6.84888 6.25H7.13155C7.5257 6.24988 7.90895 6.38504 8.22225 6.63465C8.53555 6.88426 8.7615 7.23448 8.86529 7.63132L8.99405 8.1251H17.5508C17.7351 8.12487 17.9169 8.16902 18.0822 8.25412C18.2475 8.33921 18.3917 8.46296 18.5036 8.61573C18.6156 8.76849 18.6923 8.94616 18.7277 9.13491C18.7631 9.32365 18.7563 9.51838 18.7078 9.70394L17.7287 13.4541C17.6595 13.7188 17.5089 13.9524 17.3001 14.1188C17.0912 14.2853 16.8357 14.3755 16.5728 14.3754H10.4427V15.0005C10.4427 15.1662 10.5058 15.3252 10.6181 15.4424C10.7305 15.5597 10.8828 15.6255 11.0416 15.6255H16.4309C16.5402 15.6256 16.6474 15.6569 16.7409 15.716C16.8344 15.7751 16.9106 15.8598 16.9612 15.9609C17.0119 16.062 17.035 16.1756 17.0282 16.2895C17.0214 16.4033 16.9849 16.5131 16.9226 16.6068C17.0092 16.8329 17.044 17.077 17.0243 17.3196C17.0045 17.5622 16.9307 17.7966 16.8087 18.0041C16.6867 18.2117 16.52 18.3866 16.3217 18.515C16.1235 18.6433 15.8992 18.7215 15.6669 18.7434C15.4345 18.7653 15.2005 18.7301 14.9834 18.6409C14.7664 18.5516 14.5723 18.4106 14.4168 18.2291C14.2612 18.0477 14.1484 17.8308 14.0874 17.5958C14.0264 17.3608 14.0188 17.1142 14.0653 16.8756H12.2088C12.2597 17.1365 12.2459 17.4067 12.1687 17.6605C12.0914 17.9143 11.9533 18.1433 11.7674 18.3257C11.5815 18.5082 11.3541 18.638 11.1066 18.7029C10.8592 18.7678 10.5999 18.7656 10.3535 18.6965C10.1071 18.6275 9.88163 18.4938 9.6986 18.3083C9.51557 18.1228 9.38101 17.8915 9.30769 17.6364C9.23438 17.3813 9.22474 17.1109 9.27969 16.8509C9.33464 16.5908 9.45236 16.3498 9.62168 16.1505C9.38512 15.833 9.24438 15.4342 9.24438 15.0005V13.8335L7.9586 8.91452L7.70946 7.96072C7.6749 7.8284 7.5996 7.71161 7.49516 7.62837C7.39073 7.54512 7.26296 7.50004 7.13155 7.50007H6.84888C6.69004 7.50007 6.53772 7.43422 6.42541 7.317C6.3131 7.19978 6.25 7.0408 6.25 6.87503C6.25 6.70926 6.3131 6.55028 6.42541 6.43307ZM15.3209 16.9671C15.377 16.9085 15.4532 16.8756 15.5326 16.8756C15.612 16.8756 15.6882 16.9085 15.7443 16.9671C15.8005 17.0257 15.832 17.1052 15.832 17.1881C15.832 17.271 15.8005 17.3505 15.7443 17.4091C15.6882 17.4677 15.612 17.5006 15.5326 17.5006C15.4532 17.5006 15.377 17.4677 15.3209 17.4091C15.2647 17.3505 15.2332 17.271 15.2332 17.1881C15.2332 17.1052 15.2647 17.0257 15.3209 16.9671ZM10.3008 13.1254H16.5722L17.5514 9.37517H9.32044L10.3008 13.1254ZM10.5298 16.9671C10.586 16.9085 10.6622 16.8756 10.7416 16.8756C10.821 16.8756 10.8972 16.9085 10.9533 16.9671C11.0095 17.0257 11.041 17.1052 11.041 17.1881C11.041 17.271 11.0095 17.3505 10.9533 17.4091C10.8972 17.4677 10.821 17.5006 10.7416 17.5006C10.6622 17.5006 10.586 17.4677 10.5298 17.4091C10.4737 17.3505 10.4421 17.271 10.4421 17.1881C10.4421 17.1052 10.4737 17.0257 10.5298 16.9671Z" fill="#4E98B6"/>
</g>
</svg>
