<svg xmlns="http://www.w3.org/2000/svg" width="10" height="10" viewBox="0 0 10 10" fill="none">
  <path fill-rule="evenodd" clip-rule="evenodd" d="M0.267146 0.181446C0.506963 -0.0604821 0.895783 -0.0604821 1.1356 0.181446L5 4.07987L8.8644 0.181446C9.10422 -0.0604821 9.49304 -0.0604821 9.73285 0.181446C9.97267 0.423375 9.97267 0.815619 9.73285 1.05755L5.86845 4.95597L9.82014 8.94245C10.06 9.18438 10.06 9.57662 9.82014 9.81855C9.58032 10.0605 9.1915 10.0605 8.95168 9.81855L5 5.83207L1.04832 9.81855C0.8085 10.0605 0.419679 10.0605 0.179863 9.81855C-0.0599542 9.57662 -0.0599542 9.18438 0.179863 8.94245L4.13155 4.95597L0.267146 1.05755C0.0273296 0.815619 0.0273296 0.423375 0.267146 0.181446Z" fill="#4E98B6"/>
</svg>