<svg width="25" height="25" viewBox="0 0 25 25" fill="none" xmlns="http://www.w3.org/2000/svg">
<path id="Subtract" fill-rule="evenodd" clip-rule="evenodd" d="M12.5 25C19.4036 25 25 19.4036 25 12.5C25 5.59644 19.4036 0 12.5 0C5.59644 0 0 5.59644 0 12.5C0 19.4036 5.59644 25 12.5 25ZM18.5935 17.1375C18.6999 16.9125 18.75 16.6812 18.75 16.4562C18.75 16.2812 18.7124 16.125 18.6499 15.9688C18.581 15.8125 18.4683 15.6812 18.3056 15.5688L16.2337 14.1C16.0772 13.9938 15.9333 13.9125 15.7956 13.8562C15.6579 13.8 15.5327 13.775 15.4137 13.775C15.2573 13.775 15.1133 13.8188 14.9693 13.9062C14.8254 13.9812 14.6751 14.1 14.5187 14.2563L14.0429 14.725C13.9741 14.7937 13.8927 14.8312 13.7863 14.8312C13.73 14.8312 13.6799 14.825 13.6298 14.8062C13.6097 14.7977 13.5909 14.7891 13.5735 14.7811C13.5529 14.7716 13.5341 14.763 13.5172 14.7562C13.3043 14.6438 13.0352 14.4563 12.7097 14.1812C12.3779 13.9 12.0525 13.5938 11.7144 13.2625C11.389 12.9313 11.0885 12.6 10.8068 12.275C10.5314 11.95 10.3374 11.6812 10.2247 11.475C10.2179 11.4547 10.2093 11.4344 10.1999 11.4121C10.1919 11.3932 10.1832 11.3729 10.1746 11.35C10.1621 11.3 10.1559 11.2563 10.1559 11.2063C10.1559 11.1062 10.1872 11.025 10.256 10.9563L10.7317 10.4625C10.8819 10.3125 11.0009 10.1625 11.0822 10.0188C11.1699 9.875 11.2137 9.725 11.2137 9.575C11.2137 9.45625 11.1824 9.325 11.1261 9.19375C11.0697 9.05625 10.9884 8.9125 10.8757 8.75625L9.42351 6.7125C9.31084 6.55 9.16688 6.4375 9.00413 6.3625C8.84765 6.2875 8.67238 6.25 8.49712 6.25C8.03393 6.25 7.59577 6.44375 7.19517 6.8375C6.86342 7.15 6.62556 7.5 6.47534 7.88125C6.32511 8.25625 6.25 8.6625 6.25 9.0875C6.25 9.7375 6.40023 10.4187 6.70068 11.1313C7.00113 11.8375 7.41425 12.55 7.92752 13.2625C8.45712 13.9868 9.04092 14.67 9.67389 15.3062C10.3134 15.9401 10.9997 16.5251 11.727 17.0563C12.4405 17.575 13.1604 17.9875 13.8802 18.2938C14.6 18.6 15.2823 18.75 15.9208 18.75C16.3589 18.75 16.7658 18.6688 17.1413 18.5125C17.5232 18.3563 17.8612 18.1125 18.1679 17.775C18.3494 17.575 18.4871 17.3625 18.5935 17.1375Z" fill="#4E98B6"/>
</svg>
