<svg xmlns="http://www.w3.org/2000/svg" width="39" height="37" viewBox="0 0 39 37" fill="none">
  <path d="M36.1594 26.9816C37.5073 25.5824 38.25 23.861 38.25 22.0935C38.25 18.5218 35.2884 15.4748 31.199 14.4162C31.8867 13.155 32.2718 11.7466 32.2718 10.2461C32.2626 5.08188 27.6506 0.875 21.9841 0.875C16.3176 0.875 11.7055 5.08188 11.7055 10.2461C11.7055 12.2989 12.4482 14.3057 13.8144 15.9351L12.5216 20.8232C12.4666 21.0257 12.5399 21.2374 12.705 21.3755C12.7967 21.4491 12.9159 21.4952 13.0351 21.4952C13.1176 21.4952 13.2001 21.4767 13.2734 21.4399L18.1331 18.9453C18.2614 18.9913 18.3806 19.0373 18.509 19.0741C18.023 20.0039 17.7571 21.0257 17.7571 22.1027C17.7571 26.5581 22.3508 30.1759 27.999 30.1759C29.3193 30.1759 30.6122 29.9826 31.8408 29.5867L36.7096 31.7224C36.7829 31.75 36.8471 31.7684 36.9205 31.7684C37.0489 31.7684 37.1772 31.7224 37.2689 31.6303C37.4248 31.4922 37.4798 31.2713 37.4248 31.078L36.1594 26.9816ZM32.0884 28.5281C32.015 28.5005 31.9508 28.4821 31.8775 28.4821C31.8225 28.4821 31.7675 28.4913 31.7124 28.5097C30.5388 28.9055 29.2918 29.108 28.0081 29.108C22.9376 29.108 18.8207 25.9598 18.8207 22.0935C18.8207 21.1269 19.0775 20.1972 19.5543 19.3595C20.352 19.5344 21.168 19.6265 21.9932 19.6265C25.5967 19.6265 28.7692 17.9327 30.603 15.3643C34.4082 16.2204 37.1956 18.9176 37.1956 22.0935C37.1956 23.686 36.5079 25.1957 35.2059 26.4477C35.0592 26.5858 35.0041 26.7975 35.0683 26.9908L36.0861 30.2863L32.0884 28.5281ZM17.858 17.8866L13.8419 19.9394L14.9055 15.9351C14.9514 15.7602 14.9055 15.5761 14.7863 15.4472C13.4568 13.9559 12.76 12.1609 12.76 10.2553C12.76 5.67103 16.8952 1.94283 21.9841 1.94283C27.0729 1.94283 31.2081 5.67103 31.2081 10.2553C31.2081 11.6822 30.8047 13.0262 30.1079 14.1953C30.007 14.3609 29.9061 14.5266 29.7869 14.6831C29.6677 14.8488 29.5485 15.0145 29.4202 15.171C27.7422 17.233 25.0374 18.5678 21.9841 18.5678C21.3789 18.5678 20.7829 18.5126 20.1961 18.4113C20.0035 18.3745 19.811 18.3377 19.6184 18.2917C19.4351 18.2456 19.2517 18.1996 19.0775 18.1444C18.8116 18.0615 18.5457 17.9787 18.2889 17.8682C18.1514 17.8038 17.9863 17.813 17.858 17.8866Z" fill="white"/>
  <path d="M23.9738 20.0039C22.9193 20.0039 22.0666 20.86 22.0666 21.9186C22.0666 22.9772 22.9193 23.8333 23.9738 23.8333C25.0282 23.8333 25.8809 22.9772 25.8809 21.9186C25.8718 20.8692 25.019 20.0039 23.9738 20.0039ZM23.9738 22.7747C23.5061 22.7747 23.1302 22.3881 23.1302 21.9278C23.1302 21.4583 23.5061 21.0809 23.9738 21.0809C24.4414 21.0809 24.8173 21.4583 24.8173 21.9278C24.8173 22.3881 24.4322 22.7747 23.9738 22.7747Z" fill="white"/>
  <path d="M27.999 20.0039C26.9445 20.0039 26.0918 20.86 26.0918 21.9186C26.0918 22.9772 26.9445 23.8333 27.999 23.8333C29.0443 23.8333 29.9062 22.9772 29.9062 21.9186C29.9062 20.8692 29.0534 20.0039 27.999 20.0039ZM27.999 22.7747C27.5314 22.7747 27.1463 22.3881 27.1463 21.9278C27.1463 21.4583 27.5222 21.0809 27.999 21.0809C28.4666 21.0809 28.8425 21.4583 28.8425 21.9278C28.8517 22.3881 28.4666 22.7747 27.999 22.7747Z" fill="white"/>
  <path d="M32.0334 20.0039C30.9789 20.0039 30.1262 20.86 30.1262 21.9186C30.1262 22.9772 30.9789 23.8333 32.0334 23.8333C33.0878 23.8333 33.9405 22.9772 33.9405 21.9186C33.9405 20.8692 33.0878 20.0039 32.0334 20.0039ZM32.0334 22.7747C31.5658 22.7747 31.1898 22.3881 31.1898 21.9278C31.1898 21.4583 31.5658 21.0809 32.0334 21.0809C32.501 21.0809 32.8769 21.4583 32.8769 21.9278C32.8769 22.3881 32.501 22.7747 32.0334 22.7747Z" fill="white"/>
  <path d="M17.4912 26.1991C17.262 25.7849 16.6752 25.6284 16.2717 25.8677C16.2259 25.8862 16.1984 25.9138 16.1709 25.9414C16.0058 26.0242 15.5565 26.2636 14.5571 26.8619C13.6861 27.3774 13.1909 27.9021 12.9159 28.3256C12.2557 27.4327 11.1279 25.564 10.2018 23.8794C9.22072 22.2408 8.16628 20.3261 7.72616 19.3043C8.20295 19.2767 8.90897 19.1202 9.80754 18.6139C10.5961 18.172 11.1462 17.8498 11.458 17.6565L11.5222 17.6197C11.733 17.5 11.8798 17.3067 11.9439 17.0766C12.0081 16.8464 11.9806 16.5979 11.8614 16.3954L8.01957 9.72143C7.8637 9.44527 7.56112 9.27036 7.24937 9.27036C7.0935 9.27036 6.93762 9.31639 6.84593 9.37162C6.75424 9.41765 4.46197 10.4763 2.97658 11.8479C2.78403 12.032 2.60065 12.2161 2.44478 12.391C1.1336 13.9007 0.546779 15.9627 0.812682 18.1812C1.1336 20.906 4.68203 26.7699 4.81957 26.9908C4.9571 27.2486 8.23963 33.2597 10.431 34.8983C11.8339 35.9477 13.3926 36.5 14.9514 36.5C15.6299 36.5 16.3176 36.3896 16.9778 36.187C18.8941 35.5795 20.9571 34.125 21.0121 34.0882C21.4339 33.8396 21.5806 33.2873 21.3331 32.8639L17.4912 26.1991ZM7.17602 10.3842L10.862 16.7912C10.6694 16.9109 10.376 17.0858 9.98175 17.3067L6.19493 10.8997C6.62587 10.6512 6.98347 10.4763 7.17602 10.3842ZM16.6568 35.1836C14.7955 35.7728 12.7967 35.3585 11.0637 34.0606C9.05568 32.5509 5.77315 26.5582 5.7273 26.4661C5.69063 26.4109 2.15137 20.5562 1.85796 18.0615C1.69291 16.6991 1.80294 14.7384 3.23332 13.0906C3.37085 12.9341 3.51756 12.7776 3.6826 12.6303C4.15022 12.1977 4.72788 11.7927 5.27802 11.4428L9.05568 17.8222C8.74393 17.9787 8.46886 18.08 8.23963 18.1444C7.94622 18.2272 7.71699 18.2549 7.54278 18.2549C7.33189 18.2549 7.21269 18.218 7.20353 18.218C7.03848 18.1444 6.84593 18.1536 6.69006 18.2549C6.53418 18.3561 6.44249 18.531 6.45166 18.7151C6.47917 19.7093 8.62473 23.3455 9.27573 24.4133C9.89006 25.5271 11.9531 29.2185 12.7967 29.734C12.9525 29.8261 13.1451 29.8261 13.301 29.7524C13.466 29.6788 13.576 29.5131 13.5944 29.329C13.5944 29.3198 13.6952 28.6386 14.9789 27.8469L18.7657 34.2447C18.1239 34.5853 17.372 34.9535 16.6568 35.1836ZM19.6826 33.7016L15.8958 27.3038C16.3726 27.0276 16.5835 26.9172 16.6568 26.8803L20.3336 33.2689C20.2236 33.3518 19.9852 33.5083 19.6826 33.7016Z" fill="white"/>
  <path d="M20.9663 5.49601C21.2689 5.39475 21.5715 5.33952 21.874 5.33952C22.3875 5.33952 22.7543 5.45919 22.9652 5.69853C23.1852 5.93787 23.2952 6.25085 23.2952 6.62828C23.2952 6.90444 23.2402 7.16219 23.1394 7.38312C23.0385 7.60405 22.9101 7.80657 22.7543 7.99988C22.5984 8.1932 22.4334 8.38651 22.2591 8.57982C22.0849 8.77314 21.9199 8.97566 21.764 9.19659C21.6081 9.41752 21.4798 9.65686 21.3789 9.92382C21.2781 10.1908 21.223 10.4946 21.223 10.8444V10.9824C21.223 11.0285 21.223 11.0745 21.2322 11.1205H22.0483C22.0483 10.7707 22.1033 10.4669 22.2133 10.2184C22.3233 9.96064 22.47 9.7213 22.6351 9.50037C22.8001 9.27944 22.9835 9.06771 23.1761 8.8744C23.3686 8.68109 23.552 8.46016 23.717 8.23923C23.8821 8.00909 24.0196 7.76054 24.1388 7.48438C24.2488 7.20822 24.3038 6.88603 24.3038 6.5086C24.3038 6.23244 24.258 5.96548 24.1663 5.71694C24.0746 5.46839 23.9371 5.25667 23.7537 5.07256C23.5703 4.88845 23.3411 4.75037 23.0569 4.6399C22.7818 4.53864 22.4609 4.48341 22.1033 4.48341C21.5898 4.48341 21.168 4.53864 20.8196 4.64911C20.4712 4.75957 20.1411 4.91607 19.8293 5.10017L20.1594 5.87343C20.3978 5.71694 20.6637 5.59727 20.9663 5.49601Z" fill="white"/>
  <path d="M21.6907 12.023C21.4798 12.023 21.3056 12.0874 21.1772 12.2163C21.0488 12.3452 20.9846 12.5201 20.9846 12.741C20.9846 12.9527 21.0488 13.1276 21.1772 13.2657C21.3056 13.3946 21.4798 13.4682 21.6907 13.4682C21.9107 13.4682 22.0941 13.4038 22.2225 13.2657C22.3508 13.1368 22.4242 12.9619 22.4242 12.741C22.4242 12.5201 22.36 12.3452 22.2225 12.2163C22.0941 12.0782 21.9199 12.023 21.6907 12.023Z" fill="white"/>
</svg>