<svg xmlns="http://www.w3.org/2000/svg" width="49" height="21" fill="none"><path d="M.125.375h48.75V21H.125z"/><path d="M48.867 16.78a15.466 15.466 0 0 1-.025-1.023c-.017-1.41-.05-2.525-.276-3.07-.208-.529-.467-.948-.792-1.267l-.025-.025c-.134-.134-.359-.361-.651-.411a.115.115 0 0 0-.033-.025c-.693-.412-1.352-.554-2.053-.705l-.117-.025a32.214 32.214 0 0 0-2.336-.411c-.31-.042-.618-.093-.927-.143a35.01 35.01 0 0 1-2.695-.562c0-.017.008-.034.008-.042l.009-.05c.017-.076.033-.135.05-.185.058-.176.092-.319.075-.587-.025-.445-.192-.83-.467-1.1-.334-.326-.735-.477-1.16-.435-.526.05-1.068.402-1.46.948a9.422 9.422 0 0 0-.334.495 65.861 65.861 0 0 1-1.778-.638c.167-.403.284-.839.184-1.292-.2-.931-1.118-1.577-2.011-1.418-.676.126-1.152.621-1.519 1.158l-1.193-.805c.3-.554.6-1.191.417-1.863a1.513 1.513 0 0 0-.843-.981 1.91 1.91 0 0 0-1.602 0c-.409.193-.734.486-1.01.814L22.817.8c-.25-.168-1.01-.68-1.678-.269-.275.168-.425.445-.525.663a4.649 4.649 0 0 0-.342 2.668 6.108 6.108 0 0 0-.476.226c-.467.252-.901.545-1.318.83-.3.21-.618.42-.927.604-1.694 1.007-3.805 1.46-5.94 1.276-2.546-.218-4.624-1.393-6.827-2.635l-.542-.31c-.167-.092-.384-.218-.66-.243C2.047 3.484 1.33 5.875.996 7.897c-.26 1.593-.285 2.97-.084 4.186-.009.008-.009.016-.017.025-.042.092-1.11 2.24-.66 5.318l.21 1.208c-.01.143 0 .437.15.747.175.377.575.856 1.518.973 1.243.11 11.816.646 21.278.646 3.155 0 6.184-.059 8.704-.21a147.49 147.49 0 0 0 7.61-.688l.275-.033c2.253-.269 4.59-.545 6.8-1.217l.168-.05c.86-.243 2.036-.596 1.919-2.022ZM36.692 8.165c.234-.327.56-.562.835-.587.167-.017.325.05.475.193.117.117.192.31.21.528.007.134 0 .16-.034.277-.017.067-.042.134-.067.235l-.008.05c0 .009-.009.017-.009.025a41.598 41.598 0 0 1-1.585-.46c.058-.076.125-.169.183-.261Zm-3.204.168c.55.21 1.093.402 1.627.595a4.772 4.772 0 0 1-.275.328c-.267.285-.676.478-1.01.46a.575.575 0 0 1-.459-.217c-.225-.294-.15-.604.117-1.166Zm-1.285-2.668c.426-.075.918.277 1.018.747.05.235-.025.503-.15.788-.6-.243-1.202-.495-1.81-.772.258-.36.567-.696.942-.763ZM30.01 6.856c-.268.47-.56.923-.968 1.116a.777.777 0 0 1-.735-.075c-.1-.068-.217-.185-.208-.37.008-.159.108-.343.208-.511l.426-.772c.434.218.86.42 1.277.612Zm-2.329-3.75c.268-.125.601-.125.868 0 .134.068.309.185.367.42.092.344-.091.755-.308 1.158L27.02 3.627c.2-.218.418-.411.66-.52Zm-6.25-1.535c.026-.058.1-.218.184-.268.067-.042.242-.059.71.252l2.978 1.996a7.662 7.662 0 0 0-4.172.008 3.683 3.683 0 0 1 .3-1.988ZM3.515 4.507a.925.925 0 0 1 .292.126l.534.302c2.287 1.292 4.448 2.509 7.185 2.752 2.32.201 4.622-.294 6.475-1.393.334-.201.66-.42.976-.637.418-.285.81-.554 1.235-.78 1.469-.78 3.263-.948 4.915-.462.084.025.159.059.242.084l-1.035 1.686.735.462 1.084-1.754c.167.093.326.185.493.277.25.143.5.294.767.428.184.092.36.176.535.268l-.41.739c-.133.235-.291.528-.317.88a1.26 1.26 0 0 0 .593 1.141c.467.32 1.11.37 1.594.135.65-.32 1.043-.948 1.385-1.544.634.285 1.26.554 1.877.797-.292.62-.525 1.35.026 2.03.267.336.659.52 1.1.537.593.025 1.236-.26 1.678-.738.2-.218.359-.42.51-.63.633.202 1.26.387 1.885.554-.117.386-.25.764-.426 1.074l.751.436c.226-.386.384-.839.518-1.292a34.116 34.116 0 0 0 3.73.722c.784.109 1.552.243 2.278.402l.117.026c.442.092.817.176 1.184.31l-.083.059c-.259.16-.517.277-.76.352-2.16.646-4.514.797-6.783.94l-.25.016c-.026 0-.059 0-.092.009h-.034c-2.144.126-17.798.386-28.02-.017a15.435 15.435 0 0 0-7.686-6.619c.343-1.082.776-1.703 1.202-1.678ZM1.88 8.047c.058-.352.125-.679.191-.99a14.61 14.61 0 0 1 6.851 5.697c-3.32-.151-5.933-.386-7.118-.73-.2-1.141-.175-2.441.076-3.976Zm-.334 4.84a.703.703 0 0 0 .142.034c1.285.336 3.788.563 6.917.722.05 0 .1.008.15.008.142.009.284.017.434.017.109.009.217.009.317.017.109.008.209.008.317.017.159.008.326.016.484.016.059 0 .126.009.184.009l.684.025h.017c10.773.36 26.093.034 26.994-.034l.242-.016c2.328-.151 4.731-.302 6.984-.973.317-.093.643-.244.968-.437.059-.033.125-.084.2-.134a.172.172 0 0 1 .05-.033l.009-.009c.025-.017.05-.033.075-.059.008-.008.017-.008.017-.016.025-.017.05-.034.083-.06 0 0 .009 0 .009-.007a.732.732 0 0 1 .133-.076c.042.034.108.1.142.134l.025.025c.2.21.376.479.526.823a3.379 3.379 0 0 0-.41.26c-.074.05-.141.1-.2.134-.258.15-1.06.503-1.31.579-2.21.646-4.622.797-6.95.94l-.26.016c-.942.067-9.345.243-18.106.201-10.548-.058-17.315-.42-19.201-1.023.125-.478.242-.847.334-1.1Zm.659 6.586c-.868-.109-.885-.637-.868-.797a.363.363 0 0 0 0-.134l-.217-1.25a9.093 9.093 0 0 1-.033-2.416c2.92.822 13.042 1.032 22.046 1.032 2.929 0 5.75-.025 8.152-.05-1.043.889-1.994 2.298-2.862 4.194-10.255.277-24.766-.445-26.218-.579Zm44.484-1.518-.167.05c-2.128.646-4.422.915-6.642 1.183l-.275.034c-2.429.285-4.974.52-7.56.687-.818.05-1.703.093-2.612.118 1.051-2.19 2.211-3.582 3.454-4.144l-.016-.042c3.204-.05 5.415-.11 5.749-.134l.25-.017c2.379-.151 4.84-.302 7.143-.973.35-.1 1.218-.495 1.519-.671.075-.042.167-.11.259-.177.025-.016.058-.041.091-.067.05.604.067 1.376.075 1.972.009.444.009.83.034 1.082.033.637-.326.805-1.302 1.099Z" fill="#fff"/></svg>