<svg xmlns="http://www.w3.org/2000/svg" width="75" height="75" viewBox="0 0 83 83" fill="none"><path fill-rule="evenodd" clip-rule="evenodd" d="M59.976 18.822a.538.538 0 0 0-.27-.072H33.17a.54.54 0 0 0-.368.145l-9.873 9.188a.548.548 0 0 0-.178.41v27.21c0 .302.243.547.543.547h26.728a.546.546 0 0 0 .385-.154l9.481-9.26a.55.55 0 0 0 .165-.39l.198-27.14a.553.553 0 0 0-.274-.484ZM41.712 29.036h7.773v26.119H23.836V29.036h9.294v13.771l2.262-1.583 1.728 1.583 1.699-1.643 2.893 1.643v-13.77Zm.79-1.095h7.116l8.7-8.096h-7.786l-8.03 8.096Zm-8.872 0 7.392-8.096h-7.64l-8.7 8.096h8.948Zm25.338 18.267L50.57 54.41V28.598l8.583-8.036-.186 25.646Z" fill="#fff"/></svg>