<svg width="25" height="25" fill="none" xmlns="http://www.w3.org/2000/svg"><path fill-rule="evenodd" clip-rule="evenodd" d="M12.5 25C19.404 25 25 19.404 25 12.5S19.404 0 12.5 0 0 5.596 0 12.5 5.596 25 12.5 25ZM6.425 6.433a.586.586 0 0 1 .424-.183h.283c.394 0 .777.135 1.09.385.314.25.54.6.643.996l.129.494h8.557c.184 0 .366.044.531.13.165.084.31.208.422.36a1.303 1.303 0 0 1 .204 1.088l-.98 3.751c-.069.265-.22.498-.428.665a1.165 1.165 0 0 1-.727.256h-6.13v.626a.64.64 0 0 0 .175.441.586.586 0 0 0 .424.184h5.389a.58.58 0 0 1 .31.09.62.62 0 0 1 .22.245.648.648 0 0 1-.038.646 1.627 1.627 0 0 1-.114 1.397 1.532 1.532 0 0 1-.487.511 1.44 1.44 0 0 1-1.338.126 1.498 1.498 0 0 1-.567-.412 1.584 1.584 0 0 1-.33-.633 1.63 1.63 0 0 1-.022-.72H12.21c.05.26.037.53-.04.784a1.573 1.573 0 0 1-.402.666 1.48 1.48 0 0 1-.66.377 1.436 1.436 0 0 1-.753-.006 1.483 1.483 0 0 1-.655-.389 1.576 1.576 0 0 1-.391-.672 1.628 1.628 0 0 1-.028-.785 1.58 1.58 0 0 1 .342-.7A1.919 1.919 0 0 1 9.244 15v-1.167L7.96 8.914l-.25-.953a.627.627 0 0 0-.214-.333.583.583 0 0 0-.363-.128H6.85a.586.586 0 0 1-.424-.183.64.64 0 0 1-.175-.442.64.64 0 0 1 .175-.442Zm8.896 10.534a.293.293 0 0 1 .212-.091.29.29 0 0 1 .211.091.32.32 0 0 1 .088.221.32.32 0 0 1-.088.221.293.293 0 0 1-.211.092.293.293 0 0 1-.212-.092.32.32 0 0 1-.088-.22.32.32 0 0 1 .088-.222Zm-5.02-3.842h6.271l.98-3.75H9.32l.98 3.75Zm.229 3.842a.293.293 0 0 1 .424 0 .32.32 0 0 1 .087.221.32.32 0 0 1-.088.221.293.293 0 0 1-.423 0 .32.32 0 0 1 0-.442Z" fill="#4E98B6"/></svg>