<svg width="25" height="25" fill="none" xmlns="http://www.w3.org/2000/svg"><path fill-rule="evenodd" clip-rule="evenodd" d="M12.5 25C19.404 25 25 19.404 25 12.5S19.404 0 12.5 0 0 5.596 0 12.5 5.596 25 12.5 25Zm6.093-7.863a1.59 1.59 0 0 0 .157-.68 1.29 1.29 0 0 0-.1-.488.948.948 0 0 0-.344-.4L16.234 14.1a2.429 2.429 0 0 0-.438-.244 1.001 1.001 0 0 0-.382-.081c-.157 0-.3.044-.445.131a1.919 1.919 0 0 0-.45.35l-.476.469a.345.345 0 0 1-.257.106.432.432 0 0 1-.213-.05l-.056-.025a4.79 4.79 0 0 1-.807-.575 18.79 18.79 0 0 1-.996-.918 21.429 21.429 0 0 1-.907-.988 5.192 5.192 0 0 1-.582-.8l-.025-.063-.025-.062a.567.567 0 0 1-.02-.144c0-.1.032-.181.101-.25l.476-.493c.15-.15.269-.3.35-.444a.847.847 0 0 0 .132-.444.987.987 0 0 0-.088-.381 2.14 2.14 0 0 0-.25-.438L9.424 6.713a1.02 1.02 0 0 0-.42-.35 1.178 1.178 0 0 0-.507-.113c-.463 0-.901.194-1.302.588-.332.312-.57.662-.72 1.043-.15.375-.225.781-.225 1.207 0 .65.15 1.33.45 2.043.301.707.714 1.419 1.228 2.131.53.725 1.113 1.408 1.746 2.044.64.634 1.326 1.22 2.053 1.75.713.519 1.433.931 2.153 1.238.72.306 1.402.456 2.04.456.439 0 .846-.081 1.221-.238.382-.156.72-.4 1.027-.737.181-.2.32-.412.425-.637Z" fill="#4E98B6"/></svg>