<svg xmlns="http://www.w3.org/2000/svg" width="39" height="37" fill="none"><path d="M36.16 26.982c1.347-1.4 2.09-3.121 2.09-4.889 0-3.571-2.962-6.618-7.051-7.677a8.652 8.652 0 0 0 1.073-4.17C32.262 5.082 27.65.875 21.984.875s-10.279 4.207-10.279 9.371c0 2.053.743 4.06 2.11 5.69l-1.293 4.887a.536.536 0 0 0 .751.617l4.86-2.495c.128.046.248.092.376.13a6.495 6.495 0 0 0-.752 3.028c0 4.455 4.594 8.073 10.242 8.073 1.32 0 2.613-.193 3.842-.59l4.869 2.136a.58.58 0 0 0 .21.046.49.49 0 0 0 .349-.138.545.545 0 0 0 .156-.552l-1.266-4.096Zm-4.072 1.546a.581.581 0 0 0-.21-.046.54.54 0 0 0-.166.028 11.57 11.57 0 0 1-3.704.598c-5.07 0-9.187-3.148-9.187-7.015a5.5 5.5 0 0 1 .733-2.733c.798.174 1.614.267 2.44.267 3.603 0 6.775-1.694 8.609-4.263 3.805.856 6.593 3.554 6.593 6.73 0 1.592-.688 3.102-1.99 4.354a.52.52 0 0 0-.138.543l1.018 3.295-3.998-1.758Zm-14.23-10.641-4.016 2.052 1.063-4.004a.523.523 0 0 0-.119-.488c-1.33-1.491-2.026-3.286-2.026-5.192 0-4.584 4.135-8.312 9.224-8.312s9.224 3.728 9.224 8.312a7.668 7.668 0 0 1-1.1 3.94c-.101.166-.202.332-.321.488-.12.166-.238.332-.367.488-1.678 2.062-4.383 3.397-7.436 3.397a10.493 10.493 0 0 1-2.366-.276c-.183-.046-.366-.092-.54-.148a7.782 7.782 0 0 1-.79-.276.474.474 0 0 0-.43.019Z" fill="#fff"/><path d="M23.974 20.004a1.91 1.91 0 0 0-1.907 1.915 1.91 1.91 0 0 0 1.907 1.914 1.91 1.91 0 0 0 1.907-1.914c-.01-1.05-.862-1.915-1.907-1.915Zm0 2.77a.849.849 0 0 1-.844-.846.843.843 0 1 1 1.687 0c0 .46-.385.847-.843.847Zm4.025-2.77a1.91 1.91 0 0 0-1.907 1.915 1.91 1.91 0 0 0 1.907 1.914 1.915 1.915 0 0 0 0-3.83Zm0 2.77a.857.857 0 0 1-.853-.846c0-.47.376-.847.853-.847.468 0 .844.377.844.847a.843.843 0 0 1-.844.847Zm4.034-2.77a1.91 1.91 0 0 0-1.907 1.915 1.91 1.91 0 0 0 1.907 1.914 1.915 1.915 0 0 0 0-3.83Zm0 2.77a.849.849 0 0 1-.843-.846.843.843 0 1 1 1.687 0 .85.85 0 0 1-.844.847ZM17.491 26.2c-.229-.415-.816-.572-1.22-.332a.289.289 0 0 0-.1.073c-.165.083-.614.323-1.614.92-.87.516-1.366 1.041-1.641 1.465-.66-.893-1.788-2.762-2.714-4.447-.981-1.638-2.036-3.553-2.476-4.575.477-.027 1.183-.184 2.082-.69a47.946 47.946 0 0 0 1.65-.957l.064-.037a.893.893 0 0 0 .422-.543.881.881 0 0 0-.083-.682L8.02 9.721a.897.897 0 0 0-.77-.45.84.84 0 0 0-.404.1c-.092.047-2.384 1.105-3.87 2.477a9.735 9.735 0 0 0-.531.543c-1.311 1.51-1.898 3.572-1.632 5.79.32 2.725 3.869 8.589 4.007 8.81.137.258 3.42 6.269 5.611 7.907 1.403 1.05 2.962 1.602 4.52 1.602a6.94 6.94 0 0 0 2.027-.313c1.916-.607 3.98-2.062 4.034-2.099a.902.902 0 0 0 .321-1.224l-3.842-6.665ZM7.176 10.383l3.686 6.407c-.193.12-.486.295-.88.516L6.195 10.9c.43-.249.788-.424.981-.516Zm9.48 24.8c-1.86.589-3.86.175-5.592-1.123-2.008-1.51-5.29-7.503-5.337-7.595-.036-.055-3.576-5.91-3.869-8.405-.165-1.362-.055-3.323 1.375-4.97.138-.157.285-.313.45-.46.467-.433 1.045-.838 1.595-1.188l3.778 6.38a4.604 4.604 0 0 1-.816.321 2.59 2.59 0 0 1-.697.11c-.211 0-.33-.036-.34-.036a.537.537 0 0 0-.513.037.52.52 0 0 0-.238.46c.027.994 2.173 4.63 2.824 5.698.614 1.114 2.677 4.805 3.52 5.321a.543.543 0 0 0 .505.018.517.517 0 0 0 .293-.423c0-.01.101-.69 1.385-1.482l3.787 6.398c-.642.34-1.394.709-2.11.939Zm3.027-1.482-3.787-6.398c.477-.276.688-.387.76-.424l3.678 6.389c-.11.083-.349.24-.651.433Zm1.283-28.205a2.86 2.86 0 0 1 .908-.156c.514 0 .88.12 1.091.359.22.239.33.552.33.93 0 .275-.055.533-.156.754-.1.221-.229.424-.385.617s-.32.387-.495.58c-.174.193-.34.396-.495.617a3.23 3.23 0 0 0-.385.727c-.1.267-.156.57-.156.92v.138c0 .046 0 .093.01.139h.815c0-.35.055-.654.165-.903.11-.257.257-.497.422-.718.165-.22.348-.432.541-.626a5.98 5.98 0 0 0 .541-.635c.165-.23.303-.478.422-.755.11-.276.165-.598.165-.975a2.27 2.27 0 0 0-.138-.792 1.764 1.764 0 0 0-.412-.644 1.956 1.956 0 0 0-.697-.433 2.762 2.762 0 0 0-.954-.157c-.513 0-.935.056-1.283.166-.349.11-.679.267-.99.451l.33.773c.238-.156.504-.276.806-.377Zm.724 6.527a.697.697 0 0 0-.513.193c-.128.13-.192.304-.192.525a.74.74 0 0 0 .192.525.703.703 0 0 0 .514.202c.22 0 .403-.064.532-.202a.716.716 0 0 0 .201-.525c0-.22-.064-.396-.201-.525-.129-.138-.303-.193-.532-.193Z" fill="#fff"/></svg>